<?xml version="1.0" standalone="no"?>
<!DOCTYPE svg PUBLIC "-//W3C//DTD SVG 20010904//EN"
 "http://www.w3.org/TR/2001/REC-SVG-20010904/DTD/svg10.dtd">
<svg version="1.0" xmlns="http://www.w3.org/2000/svg"
 width="700.000000pt" height="700.000000pt" viewBox="0 0 700.000000 700.000000"
 preserveAspectRatio="xMidYMid meet">
<metadata>
Created by potrace 1.14, written by Peter Selinger 2001-2017
</metadata>
<g transform="translate(0.000000,700.000000) scale(0.100000,-0.100000)"
fill="#000000" stroke="none">
<path d="M3468 6575 c-2 -2 -41 -5 -88 -9 -108 -7 -135 -12 -245 -41 -139 -38
-239 -79 -361 -151 -372 -218 -637 -617 -690 -1040 -10 -77 -11 -305 -1 -371
29 -207 109 -428 207 -576 18 -26 31 -49 29 -51 -2 -2 -35 5 -74 15 -38 10
-97 21 -130 25 -33 3 -63 8 -67 11 -11 6 -258 5 -303 -2 -201 -30 -305 -61
-462 -135 -290 -137 -529 -377 -674 -677 -27 -56 -49 -105 -49 -110 0 -5 -11
-43 -25 -85 -14 -42 -28 -93 -31 -115 -3 -21 -8 -41 -9 -44 -17 -26 -24 -317
-12 -429 16 -139 65 -304 130 -440 77 -159 157 -271 287 -400 230 -227 509
-360 850 -405 49 -6 247 -6 295 0 22 3 54 8 70 10 111 14 273 63 391 119 302
143 543 383 682 679 18 37 32 71 32 76 0 6 4 12 8 15 9 5 7 -326 -2 -473 -13
-210 -37 -371 -81 -551 -52 -213 -219 -507 -364 -638 -14 -12 -48 -44 -77 -70
-92 -84 -178 -146 -318 -229 -50 -29 -83 -53 -75 -54 72 -5 2396 -2 2391 2 -4
4 -29 19 -57 34 -48 26 -245 153 -255 164 -3 3 -32 28 -65 56 -102 84 -275
276 -275 304 0 6 -4 11 -10 11 -5 0 -10 4 -10 9 0 5 -15 34 -34 66 -59 97
-135 297 -162 424 -11 57 -32 178 -38 221 -19 158 -26 271 -31 509 l-5 224 64
-125 c34 -69 79 -147 99 -174 74 -98 83 -109 142 -172 215 -230 527 -390 845
-432 162 -22 322 -14 520 25 35 7 167 50 215 70 382 160 671 469 806 863 16
46 31 93 33 105 2 12 9 43 15 69 24 106 33 316 18 450 -40 373 -258 749 -565
976 -191 141 -423 239 -637 267 -22 3 -56 8 -75 10 -70 10 -298 4 -356 -9 -12
-2 -37 -7 -55 -10 -19 -3 -59 -13 -89 -21 -75 -20 -75 -20 -42 28 107 157 187
374 218 592 11 75 12 262 3 330 -5 33 -11 80 -15 105 -18 128 -96 335 -178
475 -231 389 -670 665 -1101 691 -44 3 -97 6 -117 8 -21 2 -39 2 -40 1z"/>
</g>
</svg>
